<svg width="18" height="20" viewBox="0 0 18 20" fill="none" xmlns="http://www.w3.org/2000/svg">
<path d="M15 14.2441C14.24 14.2441 13.56 14.5384 13.04 14.9996L5.91 10.928C5.96 10.7023 6 10.4767 6 10.2412C6 10.0057 5.96 9.78009 5.91 9.55444L12.96 5.5221C13.5 6.01265 14.21 6.3168 15 6.3168C16.66 6.3168 18 5.00212 18 3.37349C18 1.74485 16.66 0.430176 15 0.430176C13.34 0.430176 12 1.74485 12 3.37349C12 3.60895 12.04 3.8346 12.09 4.06026L5.04 8.09259C4.5 7.60204 3.79 7.2979 3 7.2979C1.34 7.2979 0 8.61258 0 10.2412C0 11.8698 1.34 13.1845 3 13.1845C3.79 13.1845 4.5 12.8804 5.04 12.3898L12.16 16.4614C12.11 16.6674 12.08 16.8833 12.08 17.1089C12.08 18.6885 13.39 19.9639 15 19.9639C16.61 19.9639 17.92 18.6885 17.92 17.1089C17.92 15.5294 16.61 14.2441 15 14.2441ZM15 2.39238C15.55 2.39238 16 2.83388 16 3.37349C16 3.91309 15.55 4.35459 15 4.35459C14.45 4.35459 14 3.91309 14 3.37349C14 2.83388 14.45 2.39238 15 2.39238ZM3 11.2223C2.45 11.2223 2 10.7808 2 10.2412C2 9.7016 2.45 9.26011 3 9.26011C3.55 9.26011 4 9.7016 4 10.2412C4 10.7808 3.55 11.2223 3 11.2223ZM15 18.09C14.45 18.09 14 17.6485 14 17.1089C14 16.5693 14.45 16.1278 15 16.1278C15.55 16.1278 16 16.5693 16 17.1089C16 17.6485 15.55 18.09 15 18.09Z" fill="#545776"/>
</svg>
